<svg width="231" height="231" viewBox="0 0 231 231" fill="none" xmlns="http://www.w3.org/2000/svg">
<circle cx="115.5" cy="115.5" r="115.5" fill="#A9DB83"/>
<path d="M144.364 157.518C144.364 174.398 130.643 188.081 113.719 188.081C96.7936 188.081 83.0732 174.398 83.0732 157.518C83.0732 140.639 96.7936 153.444 113.719 153.444C130.643 153.444 144.364 140.639 144.364 157.518Z" fill="#DE8383"/>
<path fill-rule="evenodd" clip-rule="evenodd" d="M142.948 166.543H84.4359C83.4792 163.604 82.2418 160.477 82.2418 157.228C82.2418 146.142 88.2532 147.79 97.2655 150.267C102.046 151.581 107.671 153.128 113.692 153.128C119.712 153.128 125.337 151.581 130.118 150.267C139.13 147.79 144.41 146.873 144.41 157.96C144.41 161.209 143.904 163.604 142.948 166.543Z" fill="#F9F9F9"/>
<path fill-rule="evenodd" clip-rule="evenodd" d="M136.506 177.171C131.077 184.163 122.795 188.63 113.516 188.63C104.465 188.63 96.3616 184.379 90.9308 177.679C95.0531 172.675 103.806 169.223 113.938 169.223C123.723 169.223 132.222 172.443 136.506 177.171Z" fill="#C06E6E"/>
<ellipse cx="172.125" cy="114.496" rx="12.0068" ry="12.9645" fill="#161616"/>
<ellipse cx="59.9043" cy="114.496" rx="12.0068" ry="12.9645" fill="#161616"/>
<path d="M147.22 86.3716C151.744 82.9144 158.705 76.0001 172.278 76C183.81 75.9999 193.507 83.6059 195.247 86.3716" stroke="black" stroke-width="9.24426" stroke-linecap="round"/>
<path d="M35 86.3716C39.5243 82.9144 46.4848 76.0001 60.0578 76C71.5899 75.9999 81.2872 83.6059 83.0274 86.3716" stroke="black" stroke-width="9.24426" stroke-linecap="round"/>
<circle cx="115.5" cy="115.5" r="115.5" fill="#E9E9E9" fill-opacity="0.5"/>
</svg>
