<svg width="232" height="232" viewBox="0 0 232 232" fill="none" xmlns="http://www.w3.org/2000/svg">
<circle cx="116" cy="116" r="116" fill="#F5F78B"/>
<rect x="83" y="155" width="66" height="12" rx="6" fill="black"/>
<path d="M156.588 98.6213C156.588 94.9645 159.553 92 163.21 92V92C166.866 92 169.831 94.9645 169.831 98.6213V113.111C169.831 116.768 166.866 119.733 163.21 119.733V119.733C159.553 119.733 156.588 116.768 156.588 113.111V98.6213Z" fill="black"/>
<path d="M62.0415 98.6213C62.0415 94.9645 65.006 92 68.6628 92V92C72.3197 92 75.2842 94.9645 75.2842 98.6213V113.111C75.2842 116.768 72.3197 119.733 68.6628 119.733V119.733C65.006 119.733 62.0415 116.768 62.0415 113.111V98.6213Z" fill="black"/>
</svg>
