<svg width="231" height="231" viewBox="0 0 231 231" fill="none" xmlns="http://www.w3.org/2000/svg">
<path d="M231 115.5C231 179.289 179.289 231 115.5 231C51.7111 231 0 179.289 0 115.5C0 51.7111 51.7111 0 115.5 0C179.289 0 231 51.7111 231 115.5Z" fill="#C2EDEF"/>
<path d="M89.2213 72C84.8671 75.0814 78.1684 81.2442 65.1058 81.2443C54.0073 81.2443 44.6747 74.4651 43 72" stroke="black" stroke-width="9.24426" stroke-linecap="round"/>
<path d="M189.41 72C185.056 75.0814 178.357 81.2442 165.295 81.2443C154.196 81.2443 144.864 74.4651 143.189 72" stroke="black" stroke-width="9.24426" stroke-linecap="round"/>
<path d="M85 166.849C87.066 165.368 98.8746 158 115.99 158C133.105 158 149.045 165.368 146.979 166.849C146.979 183.964 143.808 166.848 116.95 166.848C88.026 166.848 85 183.964 85 166.849Z" fill="black"/>
<circle cx="168.177" cy="114.555" r="11.5553" fill="#161616"/>
<circle cx="68.1772" cy="114.555" r="11.5553" fill="#161616"/>
<path d="M152 103C152.88 105.465 155.962 110.765 161.244 112.244" stroke="black" stroke-width="4.62213" stroke-linecap="round" stroke-linejoin="round"/>
<path d="M52 103C52.8804 105.465 55.9618 110.765 61.2443 112.244" stroke="black" stroke-width="4.62213" stroke-linecap="round" stroke-linejoin="round"/>
<circle cx="115.5" cy="115.5" r="115.5" fill="#E9E9E9" fill-opacity="0.5"/>
</svg>
