<svg width="231" height="231" viewBox="0 0 231 231" fill="none" xmlns="http://www.w3.org/2000/svg">
<circle cx="115.5" cy="115.5" r="115.5" fill="#DBF4B1"/>
<path d="M147.095 165.235C145.029 166.715 133.221 174.083 116.106 174.083C98.9904 174.083 83.0498 166.715 85.1158 165.235C85.1158 148.119 88.2877 165.235 115.145 165.235C144.069 165.235 147.095 148.119 147.095 165.235Z" fill="black"/>
<path d="M142.189 86.2443C146.543 83.1628 153.242 77.0001 166.305 77C177.403 77 186.736 83.7791 188.41 86.2443" stroke="black" stroke-width="9.24426" stroke-linecap="round"/>
<path d="M42 86.2443C46.3542 83.1628 53.0529 77.0001 66.1155 77C77.214 77 86.5466 83.7791 88.2213 86.2443" stroke="black" stroke-width="9.24426" stroke-linecap="round"/>
<path d="M158.739 112.435C158.739 108.605 161.843 105.501 165.673 105.501V105.501C169.502 105.501 172.606 108.605 172.606 112.435V126.301C172.606 130.13 169.502 133.234 165.673 133.234V133.234C161.843 133.234 158.739 130.13 158.739 126.301V112.435Z" fill="black"/>
<path d="M58.55 112.435C58.55 108.605 61.6541 105.501 65.4832 105.501V105.501C69.3123 105.501 72.4164 108.605 72.4164 112.435V126.301C72.4164 130.13 69.3123 133.234 65.4832 133.234V133.234C61.6541 133.234 58.55 130.13 58.55 126.301V112.435Z" fill="black"/>
</svg>
