<svg width="231" height="232" viewBox="0 0 231 232" fill="none" xmlns="http://www.w3.org/2000/svg">
<path d="M231 115.621C231 179.41 179.289 231.121 115.5 231.121C51.7111 231.121 0 179.41 0 115.621C0 51.8323 51.7111 0.121137 115.5 0.121137C179.289 0.121137 231 51.8323 231 115.621Z" fill="#8BADE1"/>
<path d="M165.044 175.362C165.044 188.601 143.578 178.558 117.099 178.558C90.619 178.558 69.153 188.601 69.153 175.362C69.153 162.122 90.619 151.389 117.099 151.389C143.578 151.389 165.044 162.122 165.044 175.362Z" fill="#DE8383"/>
<path fill-rule="evenodd" clip-rule="evenodd" d="M154.4 160.045C145.764 162.649 132.148 164.328 116.829 164.328C102.048 164.328 88.8521 162.764 80.1859 160.315C88.975 154.871 102.431 151.388 117.514 151.388C132.346 151.388 145.605 154.756 154.4 160.045Z" fill="#F9F9F9"/>
<circle cx="169.968" cy="114.312" r="11.5553" fill="#161616"/>
<circle cx="61.9678" cy="114.312" r="11.5553" fill="#161616"/>
<path d="M146 89.2443C150.354 86.1628 157.053 80.0001 170.115 80C181.214 80 190.547 86.7791 192.221 89.2443" stroke="black" stroke-width="9.24426" stroke-linecap="round"/>
<path d="M38 89.2443C42.3542 86.1628 49.0529 80.0001 62.1155 80C73.214 80 82.5466 86.7791 84.2213 89.2443" stroke="black" stroke-width="9.24426" stroke-linecap="round"/>
<path d="M69 122.5C70.2953 122.5 71.0663 123.083 71.5016 123.776C72.1313 124.779 71.6815 126.066 70.7976 126.855C69.4917 128.02 67.4408 129.118 64.9266 128.714C64.3107 128.615 63.7691 128.269 63.3281 127.828C63.1102 127.61 62.914 127.37 62.7846 127.09C62.3416 126.132 61.9675 124.532 63 123.5C63.2047 123.295 63.4221 123.146 63.6451 123.041C64.3281 122.721 68.2456 122.5 69 122.5Z" fill="#C2EDEF"/>
<path d="M61.6626 122C62.9579 122 63.7289 122.583 64.1642 123.276C64.7939 124.279 64.3441 125.566 63.4602 126.355C62.1543 127.52 60.1034 128.618 57.5892 128.214C56.9733 128.115 56.4317 127.769 55.9907 127.328C55.7728 127.11 55.5766 126.87 55.4472 126.59C55.0042 125.632 54.6301 124.032 55.6626 123C55.8673 122.795 56.0847 122.646 56.3077 122.541C56.9907 122.221 60.9082 122 61.6626 122Z" fill="#C2EDEF"/>
<path d="M160.678 129.089C159.39 128.952 158.685 128.291 158.325 127.556C157.805 126.492 158.387 125.26 159.35 124.569C160.771 123.548 162.926 122.672 165.384 123.339C165.986 123.502 166.488 123.903 166.88 124.388C167.074 124.627 167.244 124.887 167.343 125.179C167.682 126.178 167.886 127.808 166.75 128.726C166.525 128.908 166.293 129.034 166.06 129.114C165.347 129.361 161.429 129.168 160.678 129.089Z" fill="#C2EDEF"/>
<path d="M164.983 129.58C163.695 129.444 162.99 128.783 162.63 128.047C162.11 126.983 162.692 125.751 163.654 125.06C165.076 124.039 167.231 123.163 169.689 123.83C170.291 123.994 170.793 124.394 171.185 124.879C171.379 125.119 171.548 125.379 171.648 125.671C171.987 126.669 172.191 128.3 171.055 129.218C170.83 129.4 170.598 129.526 170.365 129.606C169.652 129.853 165.733 129.66 164.983 129.58Z" fill="#C2EDEF"/>
</svg>
