<svg width="231" height="231" viewBox="0 0 231 231" fill="none" xmlns="http://www.w3.org/2000/svg">
<path d="M231 115.5C231 179.289 179.289 231 115.5 231C51.7111 231 0 179.289 0 115.5C0 51.711 51.7111 -7.85679e-05 115.5 -7.85679e-05C179.289 -7.85679e-05 231 51.711 231 115.5Z" fill="#8BADE1"/>
<path d="M165.044 175.24C165.044 188.48 143.578 178.437 117.099 178.437C90.619 178.437 69.153 188.48 69.153 175.24C69.153 162.001 90.619 151.268 117.099 151.268C143.578 151.268 165.044 162.001 165.044 175.24Z" fill="#DE8383"/>
<path fill-rule="evenodd" clip-rule="evenodd" d="M154.4 159.924C145.764 162.527 132.148 164.207 116.829 164.207C102.048 164.207 88.8521 162.643 80.1859 160.194C88.975 154.75 102.431 151.267 117.514 151.267C132.346 151.267 145.605 154.635 154.4 159.924Z" fill="#F9F9F9"/>
<circle cx="169.968" cy="114.191" r="11.5553" fill="#161616"/>
<circle cx="61.9678" cy="114.191" r="11.5553" fill="#161616"/>
<path d="M146 89.123C150.354 86.0416 157.053 79.8788 170.115 79.8788C181.214 79.8787 190.547 86.6579 192.221 89.123" stroke="black" stroke-width="9.24426" stroke-linecap="round"/>
<path d="M38 89.123C42.3542 86.0416 49.0529 79.8788 62.1155 79.8788C73.214 79.8787 82.5466 86.6579 84.2213 89.123" stroke="black" stroke-width="9.24426" stroke-linecap="round"/>
<path d="M69 122.379C70.2953 122.379 71.0663 122.961 71.5016 123.655C72.1313 124.658 71.6815 125.945 70.7976 126.733C69.4917 127.898 67.4408 128.997 64.9266 128.592C64.3107 128.493 63.7691 128.148 63.3281 127.707C63.1102 127.489 62.914 127.248 62.7846 126.969C62.3416 126.011 61.9675 124.411 63 123.379C63.2047 123.174 63.4221 123.025 63.6451 122.92C64.3281 122.6 68.2456 122.379 69 122.379Z" fill="#C2EDEF"/>
<path d="M61.6626 121.879C62.9579 121.879 63.7289 122.461 64.1642 123.155C64.7939 124.158 64.3441 125.445 63.4602 126.233C62.1543 127.398 60.1034 128.497 57.5892 128.092C56.9733 127.993 56.4317 127.648 55.9907 127.207C55.7728 126.989 55.5766 126.748 55.4472 126.469C55.0042 125.511 54.6301 123.911 55.6626 122.879C55.8673 122.674 56.0847 122.525 56.3077 122.42C56.9907 122.1 60.9082 121.879 61.6626 121.879Z" fill="#C2EDEF"/>
<path d="M160.678 128.967C159.39 128.831 158.685 128.17 158.325 127.435C157.805 126.371 158.387 125.139 159.35 124.448C160.771 123.427 162.926 122.551 165.384 123.218C165.986 123.381 166.488 123.781 166.88 124.266C167.074 124.506 167.244 124.766 167.343 125.058C167.682 126.057 167.886 127.687 166.75 128.605C166.525 128.787 166.293 128.913 166.06 128.993C165.347 129.24 161.429 129.047 160.678 128.967Z" fill="#C2EDEF"/>
<path d="M164.983 129.459C163.695 129.322 162.99 128.662 162.63 127.926C162.11 126.862 162.692 125.63 163.654 124.939C165.076 123.918 167.231 123.042 169.689 123.709C170.291 123.872 170.793 124.273 171.185 124.758C171.379 124.998 171.548 125.258 171.648 125.549C171.987 126.548 172.191 128.179 171.055 129.097C170.83 129.279 170.598 129.404 170.365 129.485C169.652 129.731 165.733 129.538 164.983 129.459Z" fill="#C2EDEF"/>
<circle cx="115.5" cy="115.5" r="115.5" fill="#E9E9E9" fill-opacity="0.5"/>
</svg>
